<?xml version="1.0" standalone="no"?><svg xmlns="http://www.w3.org/2000/svg" viewBox="0 0 1440 320"><path fill="#00FE00" fill-opacity="1" d="M0,96L18.5,85.3C36.9,75,74,53,111,53.3C147.7,53,185,75,222,80C258.5,85,295,75,332,80C369.2,85,406,107,443,138.7C480,171,517,213,554,197.3C590.8,181,628,107,665,80C701.5,53,738,75,775,90.7C812.3,107,849,117,886,122.7C923.1,128,960,128,997,133.3C1033.8,139,1071,149,1108,149.3C1144.6,149,1182,139,1218,117.3C1255.4,96,1292,64,1329,64C1366.2,64,1403,96,1422,112L1440,128L1440,320L1421.5,320C1403.1,320,1366,320,1329,320C1292.3,320,1255,320,1218,320C1181.5,320,1145,320,1108,320C1070.8,320,1034,320,997,320C960,320,923,320,886,320C849.2,320,812,320,775,320C738.5,320,702,320,665,320C627.7,320,591,320,554,320C516.9,320,480,320,443,320C406.2,320,369,320,332,320C295.4,320,258,320,222,320C184.6,320,148,320,111,320C73.8,320,37,320,18,320L0,320Z"></path></svg>