<?xml version="1.0" standalone="no"?><svg xmlns="http://www.w3.org/2000/svg" viewBox="0 0 1440 320"><path fill="#00FE00" fill-opacity="1" d="M0,288L18.5,261.3C36.9,235,74,181,111,160C147.7,139,185,149,222,138.7C258.5,128,295,96,332,101.3C369.2,107,406,149,443,144C480,139,517,85,554,58.7C590.8,32,628,32,665,64C701.5,96,738,160,775,186.7C812.3,213,849,203,886,170.7C923.1,139,960,85,997,80C1033.8,75,1071,117,1108,122.7C1144.6,128,1182,96,1218,101.3C1255.4,107,1292,149,1329,154.7C1366.2,160,1403,128,1422,112L1440,96L1440,320L1421.5,320C1403.1,320,1366,320,1329,320C1292.3,320,1255,320,1218,320C1181.5,320,1145,320,1108,320C1070.8,320,1034,320,997,320C960,320,923,320,886,320C849.2,320,812,320,775,320C738.5,320,702,320,665,320C627.7,320,591,320,554,320C516.9,320,480,320,443,320C406.2,320,369,320,332,320C295.4,320,258,320,222,320C184.6,320,148,320,111,320C73.8,320,37,320,18,320L0,320Z"></path></svg>